<svg width="30" height="30" viewBox="0 0 30 30" fill="none" xmlns="http://www.w3.org/2000/svg">
<path d="M1.97483 1.97481C3.06551 0.884136 10.9128 6.96311 12.4839 8.53422C14.055 10.1053 6.63658 4.45521 5.5459 5.54589C4.45523 6.63656 10.1054 14.055 8.53424 12.4839C6.96313 10.9128 0.884155 3.06549 1.97483 1.97481Z" fill="#E3FEFE"/>
<path d="M27.753 1.9748C28.8437 3.06548 22.7647 10.9128 21.1936 12.4839C19.6225 14.055 25.2726 6.63655 24.1819 5.54587C23.0913 4.4552 15.6728 10.1053 17.2439 8.53421C18.815 6.9631 26.6623 0.884125 27.753 1.9748Z" fill="#E3FEFE"/>
<path d="M27.753 27.753C26.6623 28.8436 18.815 22.7647 17.2439 21.1936C15.6728 19.6225 23.0913 25.2726 24.1819 24.1819C25.2726 23.0912 19.6225 15.6728 21.1936 17.2439C22.7647 18.815 28.8437 26.6623 27.753 27.753Z" fill="#E3FEFE"/>
<path d="M1.97484 27.753C0.884166 26.6623 6.96314 18.815 8.53425 17.2439C10.1054 15.6728 4.45524 23.0912 5.54592 24.1819C6.63659 25.2726 14.0551 19.6225 12.4839 21.1936C10.9128 22.7647 3.06552 28.8437 1.97484 27.753Z" fill="#E3FEFE"/>
</svg>
